<?xml version="1.0" encoding="UTF-8"?>
<svg width="310px" height="166px" viewBox="0 0 310 166" version="1.1" xmlns="http://www.w3.org/2000/svg" xmlns:xlink="http://www.w3.org/1999/xlink">
    <title>Graphics</title>
    <defs>
        <linearGradient x1="50.0003127%" y1="99.8813487%" x2="50.0003127%" y2="27.3047841%" id="linearGradient-1">
            <stop stop-color="#991E66" offset="0%"></stop>
            <stop stop-color="#C93D8B" offset="100%"></stop>
        </linearGradient>
        <linearGradient x1="50.0003169%" y1="101.301053%" x2="50.0003169%" y2="29.2419378%" id="linearGradient-2">
            <stop stop-color="#991E66" offset="0%"></stop>
            <stop stop-color="#C93D8B" offset="100%"></stop>
        </linearGradient>
        <linearGradient x1="50.0006022%" y1="70.8926894%" x2="50.0006022%" y2="-2.62965193%" id="linearGradient-3">
            <stop stop-color="#991E66" offset="0%"></stop>
            <stop stop-color="#C93D8B" offset="100%"></stop>
        </linearGradient>
        <linearGradient x1="49.9987329%" y1="99.8712158%" x2="49.9987329%" y2="21.096601%" id="linearGradient-4">
            <stop stop-color="#991E66" offset="0%"></stop>
            <stop stop-color="#C93D8B" offset="100%"></stop>
        </linearGradient>
        <linearGradient x1="50%" y1="101.872732%" x2="50%" y2="-1.66140904%" id="linearGradient-5">
            <stop stop-color="#991E66" offset="0%"></stop>
            <stop stop-color="#C93D8B" offset="100%"></stop>
        </linearGradient>
        <linearGradient x1="49.9990337%" y1="99.8308071%" x2="49.9990337%" y2="-1.62777556%" id="linearGradient-6">
            <stop stop-color="#991E66" offset="0%"></stop>
            <stop stop-color="#C93D8B" offset="100%"></stop>
        </linearGradient>
        <linearGradient x1="49.9991509%" y1="101.282851%" x2="49.9991509%" y2="30.231849%" id="linearGradient-7">
            <stop stop-color="#991E66" offset="0%"></stop>
            <stop stop-color="#C93D8B" offset="100%"></stop>
        </linearGradient>
        <linearGradient x1="50.0003649%" y1="99.8308071%" x2="50.0003649%" y2="-1.62777556%" id="linearGradient-8">
            <stop stop-color="#991E66" offset="0%"></stop>
            <stop stop-color="#C93D8B" offset="100%"></stop>
        </linearGradient>
        <linearGradient x1="36.1045612%" y1="60.0842126%" x2="69.8813802%" y2="41.400063%" id="linearGradient-9">
            <stop stop-color="#5B8303" offset="0%"></stop>
            <stop stop-color="#AADB1E" offset="99.96%"></stop>
        </linearGradient>
        <linearGradient x1="37.9495115%" y1="60.7689006%" x2="69.7498569%" y2="35.3076433%" id="linearGradient-10">
            <stop stop-color="#5B8303" offset="0%"></stop>
            <stop stop-color="#AADB1E" offset="99.96%"></stop>
        </linearGradient>
        <linearGradient x1="41.1625014%" y1="58.0848776%" x2="77.1913392%" y2="26.5556674%" id="linearGradient-11">
            <stop stop-color="#5B8303" offset="0%"></stop>
            <stop stop-color="#AADB1E" offset="99.96%"></stop>
        </linearGradient>
    </defs>
    <g id="Interstitial-decision-page" stroke="none" stroke-width="1" fill="none" fill-rule="evenodd">
        <g transform="translate(-839, -31)" id="Skytrofa_R_SecondaryNoTag_RGB">
            <g transform="translate(761, 17.8425)">
                <g id="Graphics" transform="translate(78, 13.1575)">
                    <g id="Group" transform="translate(0, 61.3367)" fill-rule="nonzero">
                        <path d="M35.0426969,5.13106119 L34.0872972,15.0744038 C32.3529879,13.9416179 25.0968917,11.8183796 19.3621402,11.8183796 C15.2558039,11.8183796 11.9295539,12.8794106 11.9295539,16.1354348 C11.9295539,19.1079684 14.7616317,19.8513959 17.5219368,20.6301126 L24.3885781,22.6121938 C33.2377916,25.1600798 37.626512,28.8054623 37.626512,36.3773653 C37.626512,45.1890983 30.1939257,51.2400334 18.4773365,51.2400334 C11.3977304,51.2400334 3.4697953,49.2579522 0.318858774,47.488783 L1.23896048,37.2619499 C2.44262293,38.5711822 11.0435736,41.0484896 17.6631288,41.0484896 C22.0165512,41.0484896 25.6628366,39.9862822 25.6628366,36.7667237 C25.6628366,34.5376175 24.1403154,33.4048317 20.6363987,32.4849578 L13.1320398,30.5746315 C6.72544927,28.4866825 0,25.3377025 0,16.7024158 C0,7.74952571 7.5043589,1.7691692 18.8656147,1.7691692 C25.8393267,1.7691692 31.1846234,3.21955857 35.0426969,5.13106119 Z" id="Path" fill="url(#linearGradient-1)"></path>
                        <polygon id="Path" fill="url(#linearGradient-2)" points="50.8644458 28.0267455 55.2178682 28.0267455 61.8727214 16.5612587 74.2964476 16.5612587 63.9964856 33.0154733 76.8449646 50.5330715 63.4999601 50.5330715 54.8637114 37.7583524 50.8644458 37.7583524 50.8644458 50.5330715 39.7138015 50.5330715 39.7138015 0.706961893 50.8644458 0.706961893"></polygon>
                        <path d="M74.6717832,16.5612587 L87.0955094,16.5612587 L94.2810095,39.2793204 L101.288843,16.5612587 L113.747867,16.5612587 L97.9967143,55.5229756 C95.2717072,62.2820488 89.8205165,65.3957396 83.555118,65.3957396 C81.1124951,65.3957396 78.5992761,64.7946455 76.2284258,63.6265704 L77.7509471,54.8501266 C79.0958016,55.4512207 80.4406561,55.7700005 81.7149146,55.7700005 C84.7587805,55.7700005 87.3425955,54.0361206 88.3344699,50.5683608 L74.6717832,16.5612587 Z" id="Path" fill="url(#linearGradient-3)"></path>
                        <path d="M131.293336,25.655306 L131.293336,36.6255666 C131.293336,42.3930111 136.425668,41.8977849 141.806263,40.6238419 L142.585172,49.6825999 C140.108428,50.6024737 136.39037,51.2400334 133.559469,51.2400334 C125.772726,51.2400334 120.143868,47.488783 120.143868,38.430025 L120.143868,25.655306 L114.727975,25.655306 L114.727975,16.5612587 L120.143868,16.5612587 L120.143868,5.66157669 L130.939179,5.66157669 L130.939179,16.5612587 L140.532004,16.5612587 L140.532004,25.655306 L131.293336,25.655306 Z" id="Path" fill="url(#linearGradient-4)"></path>
                        <path d="M164.957057,15.8531205 C166.301911,15.8531205 167.682064,16.1013218 169.098691,16.5612587 L168.425676,26.2928656 C167.010225,25.7976394 165.5583,25.5494381 164.142849,25.5494381 C159.930619,25.5494381 156.356106,27.8491228 156.356106,34.1835484 L156.356106,50.5318952 L145.206639,50.5318952 L145.206639,16.5600824 L155.719565,16.5600824 L156.073722,21.1959174 C157.665663,17.8352017 161.028387,15.8531205 164.957057,15.8531205 Z" id="Path" fill="url(#linearGradient-5)"></path>
                        <path d="M205.789806,33.5471651 C205.789806,43.6681304 198.038361,51.2412097 187.525434,51.2412097 C177.012507,51.2412097 169.261062,43.6681304 169.261062,33.5471651 C169.261062,23.4261998 177.012507,15.8531205 187.525434,15.8531205 C198.037184,15.8531205 205.789806,23.4261998 205.789806,33.5471651 Z M180.304636,33.5471651 C180.304636,38.1477108 183.277906,41.3672694 187.525434,41.3672694 C191.772962,41.3672694 194.746232,38.1465345 194.746232,33.5471651 C194.746232,28.9466194 191.772962,25.7270608 187.525434,25.7270608 C183.277906,25.7270608 180.304636,28.9466194 180.304636,33.5471651 Z" id="Shape" fill="url(#linearGradient-6)"></path>
                        <path d="M222.82463,25.655306 L222.82463,50.5330715 L211.675162,50.5330715 L211.675162,25.655306 L206.082779,25.655306 L206.082779,16.5612587 L211.675162,16.5612587 L211.675162,13.5887251 C211.675162,6.54616129 216.134478,0 226.541511,0 C229.05473,0 231.0726,0.318779822 233.797607,1.13278586 L232.629243,10.1915438 C229.585377,8.88231157 222.435175,8.28121752 222.435175,14.2262848 L222.435175,16.5612587 L231.850333,16.5612587 L231.850333,25.655306 L222.82463,25.655306 Z" id="Path" fill="url(#linearGradient-7)"></path>
                        <path d="M234.17059,18.9668113 C236.294354,17.7634468 241.639651,15.8531205 248.152135,15.8531205 C257.992046,15.8531205 264.6469,19.745528 264.6469,28.9819087 L264.6469,50.5330715 L253.886887,50.5330715 L253.53273,46.3218842 C251.692526,48.9403487 247.550892,51.2412097 243.055101,51.2412097 C237.108562,51.2412097 232.400982,47.4899593 232.400982,41.1555337 C232.400982,33.6177437 238.913467,30.5746315 247.621488,30.5746315 C250.275899,30.5746315 252.116103,30.9287006 253.497432,31.2827697 L253.497432,30.4334744 C253.497432,26.5057776 250.984213,25.4788596 246.206038,25.4788596 C241.958509,25.4788596 237.356824,26.9292489 235.23306,28.0973241 L234.17059,18.9668113 Z M253.143275,38.2888679 L253.143275,36.8737678 C252.223173,36.5902773 250.630056,36.307963 249.001641,36.307963 C246.34723,36.307963 243.656344,37.0513905 243.656344,39.6345658 C243.656344,41.7578041 245.143567,42.8541243 247.514418,42.8541243 C249.921743,42.8541243 253.143275,41.4731372 253.143275,38.2888679 Z" id="Shape" fill="url(#linearGradient-8)"></path>
                    </g>
                    <g id="Group" transform="translate(81.8225, 0)" fill-rule="nonzero">
                        <path d="M2.02913934,59.7369225 C-0.629978116,59.9027821 -0.732342372,61.4660972 2.05855435,61.4178685 C46.8282088,60.6473859 71.1979613,60.3885979 112.307211,47.4797795 C151.252692,35.250868 175.501255,15.3288936 198.788535,25.3569304 C219.802622,34.4062779 219.067247,57.5313426 211.231087,71.6599936 C210.591016,72.8127768 211.308742,73.2668321 212.047648,72.539873 C218.024779,66.6559738 247.490389,19.9882547 207.797766,3.35641745 C175.422423,-10.2099578 151.242103,20.5834672 108.570328,38.1187101 C76.1608628,51.4345314 51.3628277,56.6549921 2.02913934,59.7369225 Z" id="Path" fill="url(#linearGradient-9)"></path>
                        <path d="M84.6876877,60.1086362 C82.5898087,60.2156804 82.4992105,58.9299743 84.5970894,58.5653184 C91.8673048,57.3019622 111.950701,52.9096233 131.277543,45.7976572 C158.47702,35.7896176 177.492063,22.894915 195.354038,30.9785126 C222.772363,43.3862231 208.368417,75.0736432 192.707863,87.2931443 C191.97837,87.767197 191.383011,87.3249047 191.979547,86.5038408 C195.722314,82.1714936 207.428314,57.3937144 188.263842,47.5668264 C173.34337,39.9149344 154.358918,48.4608215 136.919343,52.7167086 C122.748365,56.1762342 106.160649,59.0170212 84.6876877,60.1086362 Z" id="Path" fill="url(#linearGradient-10)"></path>
                        <path d="M156.290896,55.2528314 C154.670717,55.4069279 154.254201,54.8340653 156.006159,53.7106899 C158.485257,52.1214961 174.202288,46.4505089 185.640023,53.1390036 C196.14236,59.2805145 193.579724,72.361074 190.039333,77.3274519 C189.107465,78.6343315 188.672123,78.172042 188.606233,75.9735199 C188.467394,71.3094535 186.503648,64.1422009 182.187877,60.689733 C176.324876,56.0021405 164.285898,54.4952882 156.290896,55.2528314 Z" id="Path" fill="url(#linearGradient-11)"></path>
                    </g>
                    <g id="Group" transform="translate(1.4331, 124.0505)" fill="#3C3C3C" fill-rule="nonzero">
                        <polygon id="Path" points="1.68959852 33.2754377 0 33.2754377 0 18.1022239 0 1.00456815 1.68959852 0.00117630931"></polygon>
                        <path d="M16.115899,21.3170772 C16.115899,29.0313137 14.2898148,33.6871459 10.4540967,33.6871459 C6.57366779,33.6871459 4.79229442,29.0313137 4.79229442,21.3170772 C4.79229442,13.6016645 6.57366779,8.90113252 10.4540967,8.90113252 C14.2909914,8.90113252 16.115899,13.6016645 16.115899,21.3170772 Z M14.3815897,21.3170772 C14.3815897,14.5156568 13.1496888,10.5444366 10.4105625,10.5444366 C7.67025959,10.5444366 6.48306954,14.5156568 6.48306954,21.3170772 C6.48306954,28.1173213 7.71614702,32.0426655 10.4552733,32.0426655 C13.240287,32.0426655 14.3815897,28.0714453 14.3815897,21.3170772 Z" id="Shape"></path>
                        <path d="M29.1279255,33.2754377 L27.438327,33.2754377 L27.438327,15.1543928 C27.438327,13.8310448 27.3477287,12.8264767 27.0724042,12.0959886 C26.6158831,11.0008446 25.7487285,10.4997369 24.4697636,10.4997369 C23.1460878,10.4997369 21.8682995,11.2290486 20.7717077,12.2336168 L20.7717077,33.276614 L19.0821092,33.276614 L19.0821092,9.31284078 L20.7717077,9.31284078 L20.7717077,10.7279409 C21.8682995,9.63279691 23.2825735,8.90230883 24.9709954,8.90230883 C26.7064814,8.90230883 27.847784,9.58692085 28.5325656,10.9102688 C29.0808615,11.960713 29.1255723,13.3299371 29.1255723,15.063817 L29.1255723,33.2754377 L29.1279255,33.2754377 Z" id="Path"></path>
                        <path d="M41.9116915,33.2754377 L40.222093,33.2754377 L40.222093,31.7697617 C39.217276,32.9566578 37.755938,33.6871459 36.3863749,33.6871459 C33.4648755,33.6871459 31.8670518,31.2216016 31.8670518,25.8811574 C31.8670518,20.3583852 33.7390234,18.1210449 36.7970085,18.1210449 C38.1665716,18.1210449 39.217276,18.5786292 40.2209164,19.3996931 L40.2209164,14.4239047 C40.2209164,13.3275844 40.1303181,12.5065205 39.8561702,11.8677846 C39.4455365,10.9549686 38.6230927,10.5432603 37.4817901,10.5432603 C36.1581144,10.5432603 35.0156351,11.2278723 33.6919594,12.5970964 L32.6871425,11.3196245 C33.7837343,10.1327284 35.6086419,8.89995621 37.5723883,8.89995621 C39.4443599,8.89995621 40.8221593,9.5810393 41.4528172,11.0902441 C41.7763824,11.865432 41.9093383,12.9158762 41.9093383,14.2851002 L41.9093383,33.2754377 L41.9116915,33.2754377 Z M40.2232696,30.0805816 L40.2232696,20.9959448 C39.3561149,20.266633 38.351298,19.7184729 36.8452491,19.7184729 C34.6544187,19.7184729 33.6037144,21.6805568 33.6037144,25.834105 C33.6037144,29.8053252 34.6085313,32.0873668 36.662876,32.0873668 C37.8030021,32.0885416 39.1725652,31.4039296 40.2232696,30.0805816 Z" id="Shape"></path>
                        <path d="M55.7449853,21.2253251 C55.7449853,29.9429534 54.1483382,33.6871459 50.7232537,33.6871459 C49.2619157,33.6871459 48.1206131,32.9566578 47.0710853,31.7697617 L47.0710853,40.8990983 L45.3814868,41.9495425 L45.3814868,9.31284078 L47.0710853,9.31284078 L47.0710853,10.9102688 C48.1217897,9.63279691 49.3536906,8.90230856 50.860916,8.90230856 C54.2848239,8.90113252 55.7449853,12.7806006 55.7449853,21.2253251 Z M54.0553867,21.3170772 C54.0553867,13.3746368 52.8223093,10.4997369 50.5408806,10.4997369 C49.2619157,10.4997369 48.0747257,11.2749247 47.0710853,12.5076969 L47.0710853,30.0805816 C48.1676771,31.3580535 49.3078031,32.0885416 50.6314789,32.0885416 C52.9152607,32.0885416 54.0553867,28.5278533 54.0553867,21.3170772 Z" id="Shape"></path>
                        <path d="M68.894674,21.818185 L60.038401,21.818185 L60.038401,22.0452127 C60.1289992,27.9796932 61.225591,32.0414892 63.8282317,32.0414892 C65.562541,32.0414892 66.567358,30.7640173 67.4345126,28.1620211 L68.8487866,28.9372089 C67.8439697,31.8579849 66.246146,33.6847933 63.8270551,33.6847933 C60.0372244,33.6847933 58.3935133,29.439493 58.3935133,21.4064768 C58.3935133,13.6463643 60.1289992,8.89995621 63.7811676,8.89995621 C67.2956738,8.89995621 68.894674,13.7828161 68.894674,21.2700249 L68.894674,21.818185 Z M67.2050755,20.220757 L67.2050755,19.6725968 C67.0685898,14.6062327 66.0637729,10.5432603 63.7352802,10.5432603 C61.4067875,10.5432603 60.1748867,14.1039486 60.0372244,20.220757 L67.2050755,20.220757 Z" id="Shape"></path>
                        <path d="M81.9972988,31.9062136 C81.9972988,38.0218457 80.6277356,40.259186 75.697779,41.9483662 L75.1035956,40.5332661 C79.2122851,39.0722899 80.3088769,37.3831098 80.3088769,32.8637294 L80.3088769,31.6768333 C79.2581725,32.9554815 78.025095,33.6859696 76.5190462,33.6859696 C73.0951383,33.6859696 71.6338003,29.8053252 71.6338003,21.361777 C71.6338003,12.6441487 73.231624,8.90113252 76.6567085,8.90113252 C78.1168699,8.90113252 79.2593491,9.6316206 80.3100535,10.8185167 L80.3100535,9.31166447 L81.9984754,9.31166447 L81.9984754,31.9062136 L81.9972988,31.9062136 Z M80.3088769,30.0805816 L80.3088769,12.5076969 C79.1663976,11.2290486 78.072159,10.4997369 76.7473067,10.4997369 C74.4188141,10.4997369 73.3233989,14.0592488 73.3233989,21.2712012 C73.3233989,29.2136416 74.5564763,32.0885416 76.8390816,32.0885416 C78.1168699,32.0885416 79.3040599,31.3121774 80.3088769,30.0805816 Z" id="Shape"></path>
                        <path d="M94.8269522,28.2078972 C94.8269522,31.4039296 92.8632057,33.6859696 90.0334812,33.6859696 C87.5214388,33.6859696 85.6965312,32.0885416 84.9199748,28.9842613 L86.3801362,28.1173213 C87.1108052,30.7651936 88.4344809,32.0426655 90.0323046,32.0426655 C91.9501636,32.0426655 93.1373537,30.5369896 93.1373537,28.3914014 C93.1373537,25.7447055 92.3160864,24.2390296 89.3934104,21.5452813 C86.6083967,19.0350372 85.1929461,17.3011573 85.1929461,14.151001 C85.1929461,11.1384728 87.0649178,8.90230883 89.7581566,8.90230883 C92.2243116,8.90230883 93.6397622,10.4997369 94.5528043,13.055857 L93.0455788,13.9227969 C92.270199,11.8689609 91.3559803,10.5444366 89.6675584,10.5444366 C88.0250239,10.5444366 86.8825447,11.9136607 86.8825447,14.0133728 C86.8825447,16.2495368 87.6591011,17.5728847 90.3982274,20.0843051 C93.4115016,22.7768771 94.8269522,24.8307131 94.8269522,28.2078972 Z" id="Path"></path>
                        <path d="M108.522584,21.3170772 C108.522584,29.0313137 106.696499,33.6871459 102.861958,33.6871459 C98.9815291,33.6871459 97.2001557,29.0313137 97.2001557,21.3170772 C97.2001557,13.6016645 98.9815291,8.90113252 102.861958,8.90113252 C106.697676,8.90113252 108.522584,13.6016645 108.522584,21.3170772 Z M106.788274,21.3170772 C106.788274,14.5156568 105.556373,10.5444366 102.817247,10.5444366 C100.076944,10.5444366 98.8897542,14.5156568 98.8897542,21.3170772 C98.8897542,28.1173213 100.122832,32.0426655 102.861958,32.0426655 C105.646972,32.0426655 106.788274,28.0714453 106.788274,21.3170772 Z" id="Shape"></path>
                        <path d="M111.719408,33.2754377 L111.719408,9.31166447 L113.409006,9.31166447 L113.409006,10.6808885 C114.413823,9.67632035 115.829274,8.90113252 117.427097,8.90113252 C119.116696,8.90113252 120.120336,9.53986847 120.75923,10.8185167 C122.038195,9.58574454 123.590132,8.90113252 125.27973,8.90113252 C126.831666,8.90113252 127.972969,9.53986847 128.611863,10.7267646 C129.160159,11.7313327 129.296645,13.1923089 129.296645,14.9720649 L129.296645,33.2754377 L127.607046,33.2754377 L127.607046,15.063817 C127.607046,13.6487169 127.516448,12.5982727 127.150525,11.8689609 C126.694004,10.9102688 125.917448,10.4997369 124.776145,10.4997369 C123.543067,10.4997369 122.264103,11.1384728 121.169864,12.1418647 C121.30635,12.5076969 121.352237,14.4697808 121.352237,15.0167646 L121.352237,33.2742613 L119.663815,33.2742613 L119.663815,14.9261888 C119.663815,13.6934166 119.617928,12.7359009 119.342603,12.0054128 C118.93197,10.9549686 118.064815,10.4997369 116.877625,10.4997369 C115.690435,10.4997369 114.503245,11.1843489 113.40783,12.188917 L113.40783,33.276614 L111.719408,33.276614 L111.719408,33.2754377 Z" id="Path"></path>
                        <path d="M142.21572,33.2754377 L140.526121,33.2754377 L140.526121,31.7697617 C139.521304,32.9566578 138.061143,33.6871459 136.690403,33.6871459 C133.768904,33.6871459 132.17108,31.2216016 132.17108,25.8811574 C132.17108,20.3583852 134.043052,18.1210449 137.101037,18.1210449 C138.4706,18.1210449 139.521304,18.5786292 140.524945,19.3996931 L140.524945,14.4239047 C140.524945,13.3275844 140.434346,12.5065205 140.159022,11.8677846 C139.748388,10.9549686 138.925944,10.5432603 137.784642,10.5432603 C136.460966,10.5432603 135.318487,11.2278723 133.994811,12.5970964 L132.989994,11.3196245 C134.086586,10.1327284 135.911493,8.89995621 137.87524,8.89995621 C139.747212,8.89995621 141.125011,9.5810393 141.755669,11.0902441 C142.079234,11.865432 142.21219,12.9158762 142.21219,14.2851002 L142.21219,33.2754377 L142.21572,33.2754377 Z M140.527298,30.0805816 L140.527298,20.9959448 C139.660143,20.266633 138.655326,19.7184729 137.149277,19.7184729 C134.958447,19.7184729 133.907743,21.6805568 133.907743,25.834105 C133.907743,29.8053252 134.912559,32.0873668 136.966904,32.0873668 C138.10703,32.0885416 139.476593,31.4039296 140.527298,30.0805816 Z" id="Shape"></path>
                        <path d="M151.849726,31.5403814 L151.622642,33.2295616 C150.982571,33.5036417 150.480163,33.6412699 149.658895,33.6412699 C148.425818,33.6412699 147.468065,33.1389858 146.965656,32.1802937 C146.599734,31.4956817 146.463248,30.6287417 146.463248,29.5335978 L146.463248,10.8643928 L144.363016,10.8643928 L144.363016,9.31284078 L146.463248,9.31284078 L146.463248,1.55390459 L148.061072,0.595212509 L148.061072,9.31284078 L151.48498,9.31284078 L151.48498,10.8643928 L148.061072,10.8643928 L148.061072,29.4418456 C148.061072,30.1264576 148.205794,30.8969402 148.424641,31.2227779 C148.757619,31.7168278 149.291796,31.9979658 149.931867,31.9979658 C150.617825,31.9967894 151.073169,31.9062136 151.849726,31.5403814 Z" id="Path"></path>
                        <path d="M161.620217,9.31166447 L161.117809,11.0925968 C160.433027,10.7738169 159.884732,10.6808885 159.017577,10.6808885 C157.830387,10.6808885 156.826746,11.2290486 155.958415,12.2324405 L155.958415,33.2754377 L154.268817,33.2754377 L154.268817,9.31166447 L155.958415,9.31166447 L155.958415,10.7726406 C156.82557,9.67632035 158.058647,8.94700858 159.518809,8.94700858 C160.38714,8.94700858 161.118986,9.08346046 161.620217,9.31166447 Z" id="Path"></path>
                        <path d="M173.765089,21.3170772 C173.765089,29.0313137 171.939005,33.6871459 168.103287,33.6871459 C164.222858,33.6871459 162.442661,29.0313137 162.442661,21.3170772 C162.442661,13.6016645 164.224035,8.90113252 168.103287,8.90113252 C171.939005,8.90113252 173.765089,13.6016645 173.765089,21.3170772 Z M172.029603,21.3170772 C172.029603,14.5156568 170.797703,10.5444366 168.058576,10.5444366 C165.318273,10.5444366 164.131083,14.5156568 164.131083,21.3170772 C164.131083,28.1173213 165.364161,32.0426655 168.103287,32.0426655 C170.888301,32.0426655 172.029603,28.0714453 172.029603,21.3170772 Z" id="Shape"></path>
                        <path d="M187.233637,21.2253251 C187.233637,29.9429534 185.63699,33.6871459 182.211905,33.6871459 C180.750567,33.6871459 179.609265,32.9566578 178.559737,31.7697617 L178.559737,40.8990983 L176.870138,41.9495425 L176.870138,9.31284078 L178.559737,9.31284078 L178.559737,10.9102688 C179.610441,9.63279691 180.842342,8.90230856 182.349568,8.90230856 C185.773475,8.90113252 187.233637,12.7806006 187.233637,21.2253251 Z M185.544038,21.3170772 C185.544038,13.3746368 184.310961,10.4997369 182.029532,10.4997369 C180.750567,10.4997369 179.563377,11.2749247 178.559737,12.5076969 L178.559737,30.0805816 C179.656329,31.3580535 180.796455,32.0885416 182.12013,32.0885416 C184.403912,32.0885416 185.544038,28.5278533 185.544038,21.3170772 Z" id="Shape"></path>
                        <path d="M191.524699,1.00456815 C192.347143,1.00456815 193.076636,1.73505623 193.076636,2.55612012 C193.076636,3.37718402 192.347143,4.06179603 191.524699,4.06179603 C190.703432,4.06179603 189.972763,3.37718402 189.972763,2.55612012 C189.972763,1.73505623 190.703432,1.00456815 191.524699,1.00456815 Z M192.393031,33.2754377 L190.703432,33.2754377 L190.703432,9.31166447 L192.393031,9.31166447 L192.393031,29.7641544 L192.393031,33.2754377 Z" id="Shape"></path>
                        <path d="M206.318099,33.2754377 L204.628501,33.2754377 L204.628501,15.1543928 C204.628501,13.8310448 204.537903,12.8264767 204.263755,12.0959886 C203.807234,11.0008446 202.940079,10.4997369 201.661114,10.4997369 C200.337438,10.4997369 199.05965,11.2290486 197.963058,12.2336168 L197.963058,33.276614 L196.27346,33.276614 L196.27346,9.31284078 L197.963058,9.31284078 L197.963058,10.7279409 C199.05965,9.63279691 200.473924,8.90230883 202.162346,8.90230883 C203.897832,8.90230883 205.039134,9.58692085 205.723916,10.9102688 C206.272212,11.960713 206.316923,13.3299371 206.316923,15.063817 L206.316923,33.2754377 L206.318099,33.2754377 Z" id="Path"></path>
                        <polygon id="Path" points="216.132125 17.4823089 208.919563 17.4823089 208.919563 15.7472527 212.009317 15.7472527 216.132125 15.7472527"></polygon>
                        <path d="M224.944864,31.5403814 L224.71778,33.2295616 C224.078886,33.5036417 223.575301,33.6412699 222.754034,33.6412699 C221.520956,33.6412699 220.563203,33.1389858 220.060795,32.1802937 C219.694872,31.4956817 219.558386,30.6287417 219.558386,29.5335978 L219.558386,10.8643928 L217.458154,10.8643928 L217.458154,9.31284078 L219.558386,9.31284078 L219.558386,1.55390459 L221.155033,0.595212509 L221.155033,9.31284078 L224.580118,9.31284078 L224.580118,10.8643928 L221.155033,10.8643928 L221.155033,29.4418456 C221.155033,30.1264576 221.300932,30.8969402 221.520956,31.2227779 C221.853934,31.7168278 222.388111,31.9979658 223.028182,31.9979658 C223.712963,31.9967894 224.168308,31.9062136 224.944864,31.5403814 Z" id="Path"></path>
                        <path d="M236.907363,28.2996493 C235.995497,31.7227094 234.487095,33.6859696 232.159779,33.6859696 C228.553498,33.6859696 226.772125,28.8936855 226.772125,21.4076531 C226.772125,13.6475406 228.599386,8.90113252 232.205667,8.90113252 C234.853018,8.90113252 236.131983,11.4572526 236.816765,14.5156568 L235.309539,15.2461449 C234.716532,12.5982727 233.939976,10.5444366 232.113892,10.5444366 C229.739512,10.5444366 228.461723,14.425081 228.461723,21.361777 C228.461723,27.6609133 229.558315,32.0426655 232.206843,32.0426655 C233.758779,32.0426655 234.671822,30.5828657 235.538976,27.5232851 L236.907363,28.2996493 Z" id="Path"></path>
                        <path d="M249.462868,31.9062136 C249.462868,38.0218457 248.093305,40.259186 243.163348,41.9483662 L242.569165,40.5332661 C246.677855,39.0722899 247.774446,37.3831098 247.774446,32.8637294 L247.774446,31.6768333 C246.723742,32.9554815 245.491841,33.6859696 243.984616,33.6859696 C240.560708,33.6859696 239.09937,29.8053252 239.09937,21.361777 C239.09937,12.6441487 240.697193,8.90113252 244.122278,8.90113252 C245.582439,8.90113252 246.724919,9.6316206 247.774446,10.8185167 L247.774446,9.31166447 L249.464045,9.31166447 L249.464045,31.9062136 L249.462868,31.9062136 Z M247.77327,30.0805816 L247.77327,12.5076969 C246.630791,11.2290486 245.536552,10.4997369 244.2117,10.4997369 C241.883207,10.4997369 240.787792,14.0592488 240.787792,21.2712012 C240.787792,29.2136416 242.020869,32.0885416 244.303474,32.0885416 C245.581263,32.0885416 246.768453,31.3121774 247.77327,30.0805816 Z" id="Shape"></path>
                        <path d="M263.159676,33.2754377 L261.470078,33.2754377 L261.470078,31.5862575 C260.419373,32.8637294 259.187473,33.6859696 257.680247,33.6859696 C254.256339,33.6859696 252.795001,29.8053252 252.795001,21.361777 C252.795001,12.6441487 254.392825,8.90113252 257.817909,8.90113252 C259.278071,8.90113252 260.42055,9.72219642 261.470078,10.9090925 L261.470078,1.00456815 L263.159676,0 L263.159676,33.2754377 Z M261.471254,30.0805816 L261.471254,12.5076969 C260.328775,11.2290486 259.234537,10.4997369 257.909684,10.4997369 C255.581192,10.4997369 254.485776,14.0592488 254.485776,21.2712012 C254.485776,29.2136416 255.718854,32.0885416 258.001459,32.0885416 C259.278071,32.0885416 260.466437,31.3121774 261.471254,30.0805816 Z" id="Shape"></path>
                    </g>
                    <path d="M272.873691,103.116857 C275.608111,103.116857 277.855418,105.18128 277.855418,107.849149 C277.855418,110.582892 275.672824,112.600263 272.873691,112.600263 C270.158097,112.600263 267.956677,110.592303 267.956677,107.849149 C267.957854,105.153049 270.131035,103.116857 272.873691,103.116857 Z M272.873691,111.54629 C275.039813,111.54629 276.772946,110.005324 276.772946,107.849149 C276.772946,105.721206 275.020987,104.135541 272.873691,104.135541 C270.727572,104.135541 269.048563,105.722382 269.048563,107.849149 C269.048563,110.005324 270.718159,111.54629 272.873691,111.54629 Z M271.882994,110.242939 L270.809934,110.242939 L270.809934,105.40125 L273.057241,105.40125 C274.103239,105.40125 274.910387,106.097625 274.910387,107.116309 C274.910387,107.730342 274.551524,108.290265 274.038526,108.583166 L275.185712,110.242939 L273.90204,110.242939 L272.956053,108.831368 L271.882994,108.831368 L271.882994,110.242939 L271.882994,110.242939 Z M271.882994,106.309361 L271.882994,107.923257 L273.066654,107.923257 C273.516115,107.923257 273.79144,107.556248 273.79144,107.116309 C273.79144,106.629317 273.49729,106.308184 273.066654,106.308184 L271.882994,106.308184 L271.882994,106.309361 Z" id="Shape" fill="#991E66" fill-rule="nonzero"></path>
                </g>
            </g>
        </g>
    </g>
</svg>